<svg xmlns="http://www.w3.org/2000/svg" width="311.022" height="65.189" viewBox="0 0 311.022 65.189">
  <g id="logo-tagline_noir" data-name="logo-tagline noir" transform="translate(-30.66 -32.56)">
    <path id="Tracé_1" data-name="Tracé 1" d="M342.6,67.227a12.558,12.558,0,0,0,6.117-1.437V58.884a7.731,7.731,0,0,1-3.337.834c-1.622,0-2.411-.742-2.411-2.5V48.734h5.84V41.643h-5.84V35.294h-8.805v6.35H331.2v7.091h2.966v10.2c0,5.978,3.153,8.295,8.436,8.295m-27.112-.511h8.759V48.688h5.608V41.922h-5.746v-.6c0-1.622.88-2.363,2.5-2.363a10.458,10.458,0,0,1,3.291.509V33.255a19.213,19.213,0,0,0-5.746-.695c-2.966,0-5.005.649-6.534,2.179-1.483,1.483-2.132,3.614-2.132,6.488v.557h-2.92v6.905h2.92V66.716Zm-18.862-6.858a5.435,5.435,0,0,1-5.331-5.654V54.11a5.253,5.253,0,0,1,5.237-5.562,5.435,5.435,0,0,1,5.331,5.654v.092a5.253,5.253,0,0,1-5.237,5.564m-.094,7.46c8.065,0,13.9-5.979,13.9-13.116v-.094c0-7.137-5.794-13.023-13.811-13.023-8.065,0-13.9,5.979-13.9,13.116v.092c0,7.139,5.794,13.024,13.811,13.024m-26.648-.046c6.117,0,10.242-2.874,10.242-8.388v-.092c0-4.866-3.94-6.58-8.9-7.971-2.642-.788-4.079-1.251-4.079-2.225V48.5c0-.695.695-1.205,2.04-1.205a16.953,16.953,0,0,1,7.416,2.317l3.012-5.562a19.61,19.61,0,0,0-10.336-2.92c-5.794,0-10.057,2.966-10.057,8.3v.092c0,5.051,3.94,6.72,8.9,8.017,2.642.742,4.032,1.159,4.032,2.132v.092c0,.88-.695,1.343-2.225,1.343a16.293,16.293,0,0,1-8.62-2.874l-3.291,5.329a20.216,20.216,0,0,0,11.866,3.711m-20.9-10.937a14.407,14.407,0,0,0-2.526-.695,16.448,16.448,0,0,0-3.082-.278,7.214,7.214,0,0,0-4.125,1.02,3.328,3.328,0,0,0-1.483,2.92v.092a3.045,3.045,0,0,0,1.367,2.688,5.843,5.843,0,0,0,3.361.926,8.546,8.546,0,0,0,2.572-.371,6.622,6.622,0,0,0,2.062-1.044,4.738,4.738,0,0,0,1.367-1.622,4.544,4.544,0,0,0,.487-2.109V56.336Zm-.14,10.38V63.7a10.453,10.453,0,0,1-3.2,2.5,10.094,10.094,0,0,1-4.728,1.02,11.216,11.216,0,0,1-3.337-.487,8.2,8.2,0,0,1-2.758-1.437,6.983,6.983,0,0,1-2.618-5.63V59.58a7.684,7.684,0,0,1,.742-3.476,6.759,6.759,0,0,1,2.062-2.457,9.241,9.241,0,0,1,3.151-1.459,15.345,15.345,0,0,1,3.962-.487,21.837,21.837,0,0,1,3.778.278,23.067,23.067,0,0,1,2.99.741v-.6a4.877,4.877,0,0,0-1.553-3.894,6.641,6.641,0,0,0-4.472-1.343,14.965,14.965,0,0,0-3.708.417,24.3,24.3,0,0,0-3.291,1.112l-1.529-4.495a25.932,25.932,0,0,1,4.171-1.483,20.6,20.6,0,0,1,5.145-.557q5.467,0,8.111,2.712T254.4,52.21V66.716h-5.562ZM221.685,59.06a3.042,3.042,0,0,0,.788,2.347,3.178,3.178,0,0,0,2.225.72,7.676,7.676,0,0,0,3.476-.834v4.588a9.82,9.82,0,0,1-2.271.928,10.771,10.771,0,0,1-2.78.324,10.374,10.374,0,0,1-2.839-.371,5.8,5.8,0,0,1-2.266-1.209,5.357,5.357,0,0,1-1.472-2.206,9.769,9.769,0,0,1-.514-3.415V47.019h-3.105V42.246h3.105v-6.72h5.654v6.72h6.582v4.774h-6.582V59.06Zm-18.678-2.725a14.408,14.408,0,0,0-2.526-.695,16.448,16.448,0,0,0-3.082-.278,7.217,7.217,0,0,0-4.125,1.02,3.328,3.328,0,0,0-1.483,2.92v.092a3.045,3.045,0,0,0,1.367,2.688,5.843,5.843,0,0,0,3.361.926,8.553,8.553,0,0,0,2.572-.371,6.622,6.622,0,0,0,2.062-1.044,4.739,4.739,0,0,0,1.367-1.622,4.545,4.545,0,0,0,.487-2.109V56.336Zm-.14,10.38V63.7a10.453,10.453,0,0,1-3.2,2.5,10.094,10.094,0,0,1-4.728,1.02,11.216,11.216,0,0,1-3.337-.487,8.2,8.2,0,0,1-2.758-1.437,6.983,6.983,0,0,1-2.618-5.63V59.58a7.7,7.7,0,0,1,.741-3.476,6.759,6.759,0,0,1,2.062-2.457,9.241,9.241,0,0,1,3.151-1.459,15.345,15.345,0,0,1,3.962-.487,21.838,21.838,0,0,1,3.778.278,23.069,23.069,0,0,1,2.99.741v-.6a4.877,4.877,0,0,0-1.553-3.894,6.641,6.641,0,0,0-4.473-1.343,14.966,14.966,0,0,0-3.708.417,24.227,24.227,0,0,0-3.291,1.112l-1.529-4.495a25.934,25.934,0,0,1,4.171-1.483,20.6,20.6,0,0,1,5.145-.557q5.467,0,8.111,2.712t2.642,7.624V66.716h-5.56ZM174.761,51.237a7.941,7.941,0,0,0-1.548-2.479,6.761,6.761,0,0,0-4.942-2.155,6.915,6.915,0,0,0-2.7.533,6.6,6.6,0,0,0-2.241,1.553,7.319,7.319,0,0,0-1.524,2.479,9.286,9.286,0,0,0-.553,3.313,9.18,9.18,0,0,0,.553,3.267,7.289,7.289,0,0,0,1.524,2.479,6.87,6.87,0,0,0,2.241,1.576,6.768,6.768,0,0,0,7.644-1.6,7.941,7.941,0,0,0,1.548-2.479,9.4,9.4,0,0,0,0-6.488m.485,15.479V62.638a12.638,12.638,0,0,1-3.353,3.243,8.751,8.751,0,0,1-4.97,1.345,10.976,10.976,0,0,1-4.208-.834,10.434,10.434,0,0,1-3.607-2.479,12.7,12.7,0,0,1-2.542-4.009,14.182,14.182,0,0,1-.971-5.423,14.466,14.466,0,0,1,.948-5.422,12.4,12.4,0,0,1,2.52-4.009,10.365,10.365,0,0,1,3.629-2.479,11.151,11.151,0,0,1,4.23-.834,8.96,8.96,0,0,1,4.993,1.3,13.686,13.686,0,0,1,3.329,3.013V32.884H180.9V66.716Zm-42.915,0h-3.568V42.756h3.568v4.171a11.263,11.263,0,0,1,3.151-3.313,8.608,8.608,0,0,1,5.051-1.367,10.12,10.12,0,0,1,3.87.695,8.011,8.011,0,0,1,2.874,1.97,8.679,8.679,0,0,1,1.808,3.036,11.571,11.571,0,0,1,.626,3.894V66.717h-3.568v-14a7.713,7.713,0,0,0-1.714-5.283,6.2,6.2,0,0,0-4.912-1.946,7.543,7.543,0,0,0-2.85.533,6.68,6.68,0,0,0-2.295,1.529,6.919,6.919,0,0,0-1.507,2.387A8.483,8.483,0,0,0,132.332,53V66.716Zm-13.487-13.3a12.343,12.343,0,0,0-.669-3.105,8.26,8.26,0,0,0-1.473-2.595,7.13,7.13,0,0,0-2.3-1.784,7.051,7.051,0,0,0-3.156-.672,6.762,6.762,0,0,0-2.9.626A7.573,7.573,0,0,0,105.99,47.6a9.059,9.059,0,0,0-1.659,2.572,10.927,10.927,0,0,0-.829,3.245h15.341ZM104.43,59.509a8.317,8.317,0,0,0,1.9,2.549,7.992,7.992,0,0,0,2.595,1.575,8.591,8.591,0,0,0,3.012.533,9.188,9.188,0,0,0,4.287-.926,12.715,12.715,0,0,0,3.267-2.457l2.225,1.994a14.66,14.66,0,0,1-4.125,3.267,12.172,12.172,0,0,1-5.748,1.228,11.961,11.961,0,0,1-4.634-.9,11.525,11.525,0,0,1-3.811-2.549,12.133,12.133,0,0,1-2.595-3.963,13.153,13.153,0,0,1-.963-5.1,13.829,13.829,0,0,1,.858-4.89,12.274,12.274,0,0,1,2.387-3.986,11.136,11.136,0,0,1,3.638-2.664,11.564,11.564,0,0,1,9.34.022,10.355,10.355,0,0,1,3.522,2.712,11.78,11.78,0,0,1,2.178,4.032,16.21,16.21,0,0,1,.742,4.959v.509a4.386,4.386,0,0,1-.046.6H103.5a9.817,9.817,0,0,0,.926,3.454M90.411,50.932A9.043,9.043,0,0,0,88.581,48a7.887,7.887,0,0,0-2.688-1.867,8.27,8.27,0,0,0-3.245-.645,8.07,8.07,0,0,0-3.221.669,9.1,9.1,0,0,0-2.78,1.868A8.734,8.734,0,0,0,74.7,50.934a9.649,9.649,0,0,0-.718,3.781,9.819,9.819,0,0,0,.718,3.8,8.7,8.7,0,0,0,1.946,2.928,9.124,9.124,0,0,0,2.78,1.868,8.068,8.068,0,0,0,3.221.668,8.718,8.718,0,0,0,3.267-.622,7.678,7.678,0,0,0,2.688-1.8,8.628,8.628,0,0,0,1.808-2.906,10.7,10.7,0,0,0,.672-3.9,10.387,10.387,0,0,0-.672-3.829M93.77,60A12.069,12.069,0,0,1,91.2,63.912a11.248,11.248,0,0,1-3.662,2.457,10.96,10.96,0,0,1-4.241.858,10.642,10.642,0,0,1-3.059-.417,10.273,10.273,0,0,1-2.5-1.112,10.789,10.789,0,0,1-2.016-1.622,14.5,14.5,0,0,1-1.6-1.946v12H70.55V42.756h3.568v4.82a18.659,18.659,0,0,1,1.645-2.04,10.657,10.657,0,0,1,2.016-1.692,10.469,10.469,0,0,1,2.479-1.158,9.868,9.868,0,0,1,3.036-.441,11.292,11.292,0,0,1,7.879,3.267,11.869,11.869,0,0,1,2.595,3.916A14.844,14.844,0,0,1,93.77,60M59.776,51.13A9.142,9.142,0,0,0,57.9,48.149a9.022,9.022,0,0,0-2.828-2.011,8.387,8.387,0,0,0-3.522-.741,8.741,8.741,0,0,0-3.568.717A7.954,7.954,0,0,0,45.222,48.1a9.467,9.467,0,0,0-1.784,2.959,10.019,10.019,0,0,0-.649,3.629,9.883,9.883,0,0,0,.672,3.653A9.07,9.07,0,0,0,45.315,61.3a8.9,8.9,0,0,0,2.8,1.987,8.386,8.386,0,0,0,3.522.739,8.74,8.74,0,0,0,3.568-.715,8.332,8.332,0,0,0,2.78-1.965A9.028,9.028,0,0,0,59.8,58.412a10.375,10.375,0,0,0-.022-7.281m3.383,8.426a12.635,12.635,0,0,1-2.618,4.009,12.23,12.23,0,0,1-3.986,2.712,12.53,12.53,0,0,1-5.005,1,12.226,12.226,0,0,1-4.959-1,12.569,12.569,0,0,1-3.94-2.688,12.067,12.067,0,0,1-2.595-3.963,12.612,12.612,0,0,1-.926-4.82,12.834,12.834,0,0,1,.926-4.844,12.163,12.163,0,0,1,6.558-6.721A12.676,12.676,0,0,1,60.588,45.93a12.092,12.092,0,0,1,2.595,3.963,12.912,12.912,0,0,1-.024,9.663" transform="translate(-7.127)" fill="#fff"/>
    <path id="Tracé_2" data-name="Tracé 2" d="M338.145,342.1a3.385,3.385,0,0,0-.818-1.069,3.724,3.724,0,0,0-1.164-.684,3.931,3.931,0,0,0-1.367-.241,3.844,3.844,0,0,0-1.339.232,3.208,3.208,0,0,0-1.1.674,3.158,3.158,0,0,0-.741,1.069,3.5,3.5,0,0,0-.27,1.4,3.359,3.359,0,0,0,1.029,2.474,3.252,3.252,0,0,0,1.1.693,3.643,3.643,0,0,0,1.318.241,3.9,3.9,0,0,0,1.367-.241,3.705,3.705,0,0,0,1.164-.683,3.391,3.391,0,0,0,.818-1.069,3.327,3.327,0,0,0,0-2.791m1.377,7.248a4,4,0,0,1-1.02,1.511,4.373,4.373,0,0,1-1.6.915,6.659,6.659,0,0,1-2.089.308,8.163,8.163,0,0,1-2.387-.346,7.66,7.66,0,0,1-2.136-1.039l.674-1.155a7.178,7.178,0,0,0,1.81.944,6.1,6.1,0,0,0,2.021.327,3.767,3.767,0,0,0,2.637-.894,3.4,3.4,0,0,0,.982-2.647V346.1a6.312,6.312,0,0,1-1.6,1.483,4.131,4.131,0,0,1-2.309.615,4.888,4.888,0,0,1-1.741-.317,4.51,4.51,0,0,1-2.541-2.4,4.682,4.682,0,0,1-.395-1.963,4.748,4.748,0,0,1,.395-1.973,4.538,4.538,0,0,1,1.048-1.483,4.669,4.669,0,0,1,1.5-.934,4.753,4.753,0,0,1,1.732-.327,4.81,4.81,0,0,1,1.28.163,4.645,4.645,0,0,1,1.058.433,4.482,4.482,0,0,1,.856.636,6.542,6.542,0,0,1,.693.769v-1.791h1.483v8.218a5.859,5.859,0,0,1-.358,2.117m-19.393-.385h-1.483v-9.952h1.483v1.732a4.676,4.676,0,0,1,1.308-1.377,3.57,3.57,0,0,1,2.1-.568,4.207,4.207,0,0,1,1.607.289,3.329,3.329,0,0,1,1.194.818,3.617,3.617,0,0,1,.75,1.261,4.814,4.814,0,0,1,.26,1.618v6.179h-1.483v-5.813a3.206,3.206,0,0,0-.712-2.195,2.572,2.572,0,0,0-2.04-.809,3.142,3.142,0,0,0-1.185.222,2.754,2.754,0,0,0-.953.636,2.836,2.836,0,0,0-.625.991,3.525,3.525,0,0,0-.222,1.27v5.7Zm-6.314-9.952H315.3v9.952h-1.483Zm-.1-3.811h1.694v1.637h-1.694Zm-6.255,13.763h-1.483v-9.952h1.483v2.6a5.259,5.259,0,0,1,.674-1.136,4.489,4.489,0,0,1,.925-.895,3.928,3.928,0,0,1,1.136-.568,4.059,4.059,0,0,1,1.329-.173v1.6h-.116a4.091,4.091,0,0,0-1.531.289,3.442,3.442,0,0,0-1.261.866,4.087,4.087,0,0,0-.847,1.434,5.8,5.8,0,0,0-.308,1.973v3.965Zm-11.013-4.485A1.8,1.8,0,0,0,295.7,346a1.723,1.723,0,0,0,.2.847,1.959,1.959,0,0,0,.547.625,2.51,2.51,0,0,0,.8.395,3.281,3.281,0,0,0,.95.135,4.051,4.051,0,0,0,1.294-.2,3.458,3.458,0,0,0,1.056-.558,2.645,2.645,0,0,0,.709-.847,2.292,2.292,0,0,0,.259-1.088v-.963c-.371-.1-.8-.2-1.275-.289a8.92,8.92,0,0,0-1.64-.135,3.541,3.541,0,0,0-2.149.558m.473-4.09a8.913,8.913,0,0,0-1.415.53l-.442-1.213a9.873,9.873,0,0,1,1.675-.606,7.724,7.724,0,0,1,1.944-.222,4.463,4.463,0,0,1,3.137,1.01,3.872,3.872,0,0,1,1.1,2.993v6.082h-1.424v-1.5a4.884,4.884,0,0,1-1.4,1.194,4.267,4.267,0,0,1-2.2.52,4.85,4.85,0,0,1-1.358-.192,3.714,3.714,0,0,1-1.194-.587,2.985,2.985,0,0,1-.847-.972,2.787,2.787,0,0,1-.317-1.367,3.049,3.049,0,0,1,.308-1.4,2.747,2.747,0,0,1,.875-1.01,4.2,4.2,0,0,1,1.348-.615,6.571,6.571,0,0,1,1.722-.211,10.5,10.5,0,0,1,1.675.116,11.883,11.883,0,0,1,1.386.308V342.9a2.554,2.554,0,0,0-.78-2.03,3.21,3.21,0,0,0-2.186-.684,5.837,5.837,0,0,0-1.6.2m-12.271,8.575h-1.483V334.908h1.483v5.833a4.676,4.676,0,0,1,1.308-1.377,3.57,3.57,0,0,1,2.1-.568,4.206,4.206,0,0,1,1.607.289,3.33,3.33,0,0,1,1.194.818,3.617,3.617,0,0,1,.75,1.261,4.813,4.813,0,0,1,.26,1.618v6.179h-1.483v-5.813a3.206,3.206,0,0,0-.712-2.2,2.574,2.574,0,0,0-2.041-.809,3.129,3.129,0,0,0-1.183.222,2.757,2.757,0,0,0-.953.636,2.838,2.838,0,0,0-.625.991,3.526,3.526,0,0,0-.222,1.27v5.7Zm-4.417-1.531a2.869,2.869,0,0,1-.75.934,3.3,3.3,0,0,1-1.117.587,4.639,4.639,0,0,1-1.4.2,6.386,6.386,0,0,1-2.174-.395,6.762,6.762,0,0,1-1.944-1.069l.75-1.059a6.6,6.6,0,0,0,1.684.944,4.981,4.981,0,0,0,1.762.327,2.438,2.438,0,0,0,1.481-.423,1.355,1.355,0,0,0,.577-1.155v-.038a1.032,1.032,0,0,0-.2-.636,1.819,1.819,0,0,0-.549-.471,4.448,4.448,0,0,0-.8-.357c-.3-.1-.612-.2-.934-.289q-.578-.174-1.164-.376a4.751,4.751,0,0,1-1.059-.511,2.564,2.564,0,0,1-.769-.771,2.079,2.079,0,0,1-.3-1.155v-.038a2.691,2.691,0,0,1,.251-1.164,2.613,2.613,0,0,1,.7-.906,3.211,3.211,0,0,1,1.078-.577,4.389,4.389,0,0,1,1.358-.2,6.181,6.181,0,0,1,1.867.3,7.02,7.02,0,0,1,1.713.8l-.674,1.117a6.738,6.738,0,0,0-1.453-.7,4.607,4.607,0,0,0-1.492-.26,2.193,2.193,0,0,0-1.405.414,1.269,1.269,0,0,0-.52,1.029v.038a.92.92,0,0,0,.213.606,1.86,1.86,0,0,0,.568.452,5.059,5.059,0,0,0,.818.346q.462.154.963.308c.385.116.766.244,1.145.385a4.429,4.429,0,0,1,1.029.539,2.637,2.637,0,0,1,.741.79,2.164,2.164,0,0,1,.279,1.136v.038a2.755,2.755,0,0,1-.279,1.266m-21.764-2.955a1.8,1.8,0,0,0-.749,1.521,1.724,1.724,0,0,0,.2.847,1.941,1.941,0,0,0,.547.625,2.51,2.51,0,0,0,.8.395,3.274,3.274,0,0,0,.95.135,4.051,4.051,0,0,0,1.294-.2,3.431,3.431,0,0,0,1.055-.558,2.649,2.649,0,0,0,.71-.847,2.291,2.291,0,0,0,.259-1.088v-.963c-.371-.1-.8-.2-1.277-.289a8.92,8.92,0,0,0-1.64-.135,3.542,3.542,0,0,0-2.147.558m.474-4.09a8.861,8.861,0,0,0-1.415.53l-.443-1.213a9.875,9.875,0,0,1,1.675-.606,7.724,7.724,0,0,1,1.944-.222,4.463,4.463,0,0,1,3.137,1.01,3.872,3.872,0,0,1,1.1,2.993v6.082h-1.424v-1.5a4.886,4.886,0,0,1-1.4,1.194,4.267,4.267,0,0,1-2.2.52,4.851,4.851,0,0,1-1.358-.192,3.714,3.714,0,0,1-1.194-.587,2.986,2.986,0,0,1-.847-.972,2.8,2.8,0,0,1-.317-1.367,3.049,3.049,0,0,1,.308-1.4,2.762,2.762,0,0,1,.875-1.01,4.182,4.182,0,0,1,1.348-.615,6.572,6.572,0,0,1,1.722-.211,10.5,10.5,0,0,1,1.675.116,11.885,11.885,0,0,1,1.386.308V342.9a2.554,2.554,0,0,0-.78-2.03,3.21,3.21,0,0,0-2.185-.684,5.829,5.829,0,0,0-1.605.2m-7.67,5.746a1.558,1.558,0,0,0,.462,1.289,1.894,1.894,0,0,0,1.213.366,3.171,3.171,0,0,0,.722-.078,3.242,3.242,0,0,0,.722-.27v1.27a3.307,3.307,0,0,1-.818.317,4.141,4.141,0,0,1-.972.106,3.957,3.957,0,0,1-1.117-.154A2.192,2.192,0,0,1,250,347.612a3.524,3.524,0,0,1-.213-1.289v-6.006H248.4v-1.308h1.386v-3h1.483v3h3.158v1.308h-3.158v5.814Zm-11.437-1.656a1.8,1.8,0,0,0-.749,1.521,1.724,1.724,0,0,0,.2.847,1.923,1.923,0,0,0,.547.625,2.51,2.51,0,0,0,.8.395,3.281,3.281,0,0,0,.95.135,4.051,4.051,0,0,0,1.294-.2,3.458,3.458,0,0,0,1.056-.558,2.67,2.67,0,0,0,.711-.847,2.291,2.291,0,0,0,.259-1.088v-.963c-.371-.1-.8-.2-1.275-.289a8.92,8.92,0,0,0-1.64-.135,3.543,3.543,0,0,0-2.151.558m.473-4.09a8.915,8.915,0,0,0-1.415.53l-.442-1.213a9.874,9.874,0,0,1,1.675-.606,7.724,7.724,0,0,1,1.944-.222,4.465,4.465,0,0,1,3.137,1.01,3.872,3.872,0,0,1,1.1,2.993v6.082h-1.424v-1.5a4.906,4.906,0,0,1-1.4,1.194,4.267,4.267,0,0,1-2.2.52,4.85,4.85,0,0,1-1.358-.192,3.691,3.691,0,0,1-1.193-.587,2.985,2.985,0,0,1-.847-.972,2.8,2.8,0,0,1-.317-1.367,3.049,3.049,0,0,1,.308-1.4,2.747,2.747,0,0,1,.875-1.01,4.2,4.2,0,0,1,1.348-.615,6.571,6.571,0,0,1,1.722-.211,10.529,10.529,0,0,1,1.675.116,11.884,11.884,0,0,1,1.386.308V342.9a2.554,2.554,0,0,0-.78-2.03,3.21,3.21,0,0,0-2.186-.684,5.841,5.841,0,0,0-1.607.2m-6.929,2.019a3.67,3.67,0,0,0-.809-1.207,3.792,3.792,0,0,0-1.155-.775,3.34,3.34,0,0,0-1.339-.278,3.579,3.579,0,0,0-1.367.259,3.206,3.206,0,0,0-1.107.747,3.569,3.569,0,0,0-.75,1.207,4.448,4.448,0,0,0-.279,1.618,4.311,4.311,0,0,0,.279,1.589,3.724,3.724,0,0,0,.76,1.216,3.294,3.294,0,0,0,1.117.775,3.419,3.419,0,0,0,1.348.268,3.352,3.352,0,0,0,1.339-.278,3.791,3.791,0,0,0,1.155-.776,3.63,3.63,0,0,0,.809-1.216,4.091,4.091,0,0,0,.3-1.58,3.993,3.993,0,0,0-.3-1.57m.241,6.557v-2a7.829,7.829,0,0,1-.684.847,4.674,4.674,0,0,1-.837.712,3.882,3.882,0,0,1-1.029.481,4.3,4.3,0,0,1-1.261.173,4.6,4.6,0,0,1-1.751-.346,4.679,4.679,0,0,1-1.521-1.01,4.935,4.935,0,0,1-1.078-1.627,6.158,6.158,0,0,1,0-4.39,4.926,4.926,0,0,1,1.078-1.627,4.812,4.812,0,0,1,1.521-1.02,4.464,4.464,0,0,1,1.751-.355,4.4,4.4,0,0,1,1.27.173,4.276,4.276,0,0,1,1.039.462,4.476,4.476,0,0,1,.837.674,6.073,6.073,0,0,1,.665.809v-6.006H235.1v14.052h-1.483Zm-19.885,0h-1.483v-9.952h1.483v2.6a5.26,5.26,0,0,1,.674-1.136,4.49,4.49,0,0,1,.925-.895,3.908,3.908,0,0,1,1.136-.568,4.056,4.056,0,0,1,1.327-.173v1.6h-.116a4.1,4.1,0,0,0-1.53.289,3.454,3.454,0,0,0-1.261.866,4.087,4.087,0,0,0-.847,1.434,5.8,5.8,0,0,0-.308,1.973Zm-5.86-6.474a3.815,3.815,0,0,0-.78-1.239,3.754,3.754,0,0,0-1.174-.836,3.488,3.488,0,0,0-1.462-.308,3.636,3.636,0,0,0-1.483.3,3.3,3.3,0,0,0-1.145.826,3.949,3.949,0,0,0-.741,1.229,4.171,4.171,0,0,0-.27,1.507,4.128,4.128,0,0,0,.279,1.518,3.767,3.767,0,0,0,.769,1.229,3.717,3.717,0,0,0,1.164.826,3.487,3.487,0,0,0,1.462.308,3.61,3.61,0,0,0,1.483-.3,3.46,3.46,0,0,0,1.155-.817,3.743,3.743,0,0,0,.75-1.22,4.172,4.172,0,0,0,.27-1.507,4.127,4.127,0,0,0-.278-1.518m1.405,3.5a5.2,5.2,0,0,1-1.088,1.665,5.082,5.082,0,0,1-1.656,1.126,5.211,5.211,0,0,1-2.079.414,5.076,5.076,0,0,1-2.06-.414,5.25,5.25,0,0,1-1.637-1.117,5.018,5.018,0,0,1-1.079-1.646,5.237,5.237,0,0,1-.385-2,5.308,5.308,0,0,1,.385-2.011,5.054,5.054,0,0,1,2.725-2.791,5.266,5.266,0,0,1,5.8,1.116,5.035,5.035,0,0,1,1.078,1.646,5.353,5.353,0,0,1-.01,4.012m-10.962-6.94v1.27h-3.139v8.644H193.7v-8.644h-1.367v-1.289H193.7v-.866a3.545,3.545,0,0,1,.78-2.484,2.872,2.872,0,0,1,2.224-.847,6.034,6.034,0,0,1,.895.057,3.859,3.859,0,0,1,.741.192v1.289c-.27-.078-.514-.138-.731-.182a3.572,3.572,0,0,0-.712-.067q-1.732,0-1.732,2.117v.809Zm-21.136,9.914H175.7v-9.952h1.483v1.732a4.676,4.676,0,0,1,1.308-1.377,3.57,3.57,0,0,1,2.1-.568,4.207,4.207,0,0,1,1.607.289,3.329,3.329,0,0,1,1.194.818,3.617,3.617,0,0,1,.75,1.261,4.814,4.814,0,0,1,.26,1.618v6.179h-1.483v-5.813a3.206,3.206,0,0,0-.712-2.195,2.574,2.574,0,0,0-2.041-.809,3.128,3.128,0,0,0-1.183.222,2.755,2.755,0,0,0-.953.636,2.863,2.863,0,0,0-.626.991,3.526,3.526,0,0,0-.22,1.27v5.7Zm-5.862-6.474a3.75,3.75,0,0,0-1.954-2.074,3.488,3.488,0,0,0-1.462-.308,3.636,3.636,0,0,0-1.483.3,3.3,3.3,0,0,0-1.145.826,3.949,3.949,0,0,0-.741,1.229,4.173,4.173,0,0,0-.27,1.507,4.128,4.128,0,0,0,.279,1.518,3.766,3.766,0,0,0,.769,1.229,3.716,3.716,0,0,0,1.164.826,3.487,3.487,0,0,0,1.462.308,3.61,3.61,0,0,0,1.483-.3,3.46,3.46,0,0,0,1.155-.817,3.743,3.743,0,0,0,.75-1.22A4.172,4.172,0,0,0,171.6,344a4.1,4.1,0,0,0-.278-1.518m1.405,3.5a5.2,5.2,0,0,1-1.088,1.665,5.082,5.082,0,0,1-1.656,1.126,5.211,5.211,0,0,1-2.079.414,5.076,5.076,0,0,1-2.06-.414,5.251,5.251,0,0,1-1.637-1.117,5.018,5.018,0,0,1-1.078-1.646,5.237,5.237,0,0,1-.385-2,5.309,5.309,0,0,1,.385-2.011,5.053,5.053,0,0,1,2.725-2.791,5.266,5.266,0,0,1,5.8,1.116,5.035,5.035,0,0,1,1.078,1.646,5.353,5.353,0,0,1-.009,4.012m-14.195-6.978h1.483v9.952h-1.483Zm-.1-3.811h1.694v1.637h-1.694Zm-5.717,10.934a1.559,1.559,0,0,0,.462,1.289,1.9,1.9,0,0,0,1.213.366,3.181,3.181,0,0,0,.722-.078,3.241,3.241,0,0,0,.722-.27v1.27a3.306,3.306,0,0,1-.818.317,4.142,4.142,0,0,1-.972.106,3.958,3.958,0,0,1-1.117-.154,2.192,2.192,0,0,1-1.481-1.367,3.525,3.525,0,0,1-.211-1.289v-6.006H149.85v-1.308h1.386v-3h1.481v3h3.158v1.308h-3.158Zm-6.7-7.123h1.464v9.952h-1.464v-1.732a4.677,4.677,0,0,1-1.308,1.377,3.57,3.57,0,0,1-2.1.568,4.206,4.206,0,0,1-1.607-.289,3.309,3.309,0,0,1-1.193-.818,3.589,3.589,0,0,1-.75-1.261,4.814,4.814,0,0,1-.26-1.618v-6.179h1.481v5.813a3.206,3.206,0,0,0,.712,2.2,2.574,2.574,0,0,0,2.041.809,3.1,3.1,0,0,0,1.183-.222,2.641,2.641,0,0,0,.944-.636,3.09,3.09,0,0,0,.626-.991,3.4,3.4,0,0,0,.232-1.27v-5.7Zm-11.895-4.1h1.483V348.96h-1.483Zm-4.514,7.578a3.75,3.75,0,0,0-1.954-2.074,3.488,3.488,0,0,0-1.462-.308,3.636,3.636,0,0,0-1.483.3,3.3,3.3,0,0,0-1.145.826,3.95,3.95,0,0,0-.741,1.229,4.172,4.172,0,0,0-.27,1.507,4.128,4.128,0,0,0,.279,1.518,3.682,3.682,0,0,0,1.935,2.055,3.487,3.487,0,0,0,1.462.308,3.61,3.61,0,0,0,1.483-.3,3.461,3.461,0,0,0,1.155-.817,3.744,3.744,0,0,0,.75-1.22,4.172,4.172,0,0,0,.27-1.507,4.128,4.128,0,0,0-.279-1.518m1.405,3.5a5.2,5.2,0,0,1-1.088,1.665,5.082,5.082,0,0,1-1.656,1.126,5.211,5.211,0,0,1-2.079.414,5.076,5.076,0,0,1-2.06-.414,5.233,5.233,0,0,1-1.637-1.117,5.018,5.018,0,0,1-1.078-1.646,5.236,5.236,0,0,1-.385-2,5.308,5.308,0,0,1,.385-2.011,5.053,5.053,0,0,1,2.725-2.791,5.266,5.266,0,0,1,5.8,1.116,5.035,5.035,0,0,1,1.078,1.646,5.353,5.353,0,0,1-.01,4.012m-12.3,1.443a2.868,2.868,0,0,1-.75.934,3.3,3.3,0,0,1-1.117.587,4.639,4.639,0,0,1-1.4.2,6.386,6.386,0,0,1-2.174-.395,6.763,6.763,0,0,1-1.944-1.069l.75-1.059a6.6,6.6,0,0,0,1.684.944,4.981,4.981,0,0,0,1.762.327,2.447,2.447,0,0,0,1.483-.423,1.355,1.355,0,0,0,.577-1.155v-.038a1.032,1.032,0,0,0-.2-.636,1.818,1.818,0,0,0-.549-.471,4.448,4.448,0,0,0-.8-.357c-.3-.1-.612-.2-.934-.289q-.578-.174-1.164-.376a4.706,4.706,0,0,1-1.058-.511,2.588,2.588,0,0,1-.771-.771,2.079,2.079,0,0,1-.3-1.155v-.038a2.668,2.668,0,0,1,.251-1.164,2.613,2.613,0,0,1,.7-.906,3.211,3.211,0,0,1,1.078-.577,4.389,4.389,0,0,1,1.358-.2,6.181,6.181,0,0,1,1.867.3,6.992,6.992,0,0,1,1.713.8l-.674,1.117a6.738,6.738,0,0,0-1.453-.7,4.607,4.607,0,0,0-1.492-.26,2.2,2.2,0,0,0-1.405.414,1.269,1.269,0,0,0-.52,1.029v.038a.927.927,0,0,0,.211.606,1.86,1.86,0,0,0,.568.452,5.061,5.061,0,0,0,.818.346q.462.154.963.308.578.174,1.145.385a4.429,4.429,0,0,1,1.029.539,2.636,2.636,0,0,1,.741.79,2.164,2.164,0,0,1,.279,1.136v.038a2.754,2.754,0,0,1-.279,1.266M101.535,342.1a3.408,3.408,0,0,0-.818-1.069,3.708,3.708,0,0,0-1.164-.684,3.932,3.932,0,0,0-1.367-.241,3.828,3.828,0,0,0-1.337.232,3.208,3.208,0,0,0-1.1.674,3.159,3.159,0,0,0-.741,1.069,3.5,3.5,0,0,0-.27,1.4,3.358,3.358,0,0,0,1.029,2.474,3.252,3.252,0,0,0,1.1.693,3.644,3.644,0,0,0,1.318.241,3.9,3.9,0,0,0,1.367-.241,3.706,3.706,0,0,0,1.164-.683,3.39,3.39,0,0,0,.818-1.069,3.319,3.319,0,0,0,0-2.791m1.377,7.248a4,4,0,0,1-1.02,1.511,4.372,4.372,0,0,1-1.6.915,6.666,6.666,0,0,1-2.089.308,8.164,8.164,0,0,1-2.387-.346,7.66,7.66,0,0,1-2.136-1.039l.674-1.155a7.178,7.178,0,0,0,1.81.944,6.1,6.1,0,0,0,2.021.327,3.767,3.767,0,0,0,2.637-.894,3.4,3.4,0,0,0,.982-2.647V346.1a6.313,6.313,0,0,1-1.6,1.483,4.131,4.131,0,0,1-2.309.615,4.888,4.888,0,0,1-1.741-.317,4.51,4.51,0,0,1-2.541-2.4,4.683,4.683,0,0,1-.395-1.963,4.749,4.749,0,0,1,.395-1.973,4.539,4.539,0,0,1,1.048-1.483,4.67,4.67,0,0,1,1.5-.934A4.753,4.753,0,0,1,97.9,338.8a4.81,4.81,0,0,1,1.28.163,4.688,4.688,0,0,1,1.059.433,4.483,4.483,0,0,1,.856.636,6.543,6.543,0,0,1,.693.769v-1.791h1.483v8.218a5.824,5.824,0,0,1-.36,2.117m-19.393-.385H82.035v-9.952h1.483v1.732a4.676,4.676,0,0,1,1.308-1.377,3.57,3.57,0,0,1,2.1-.568,4.207,4.207,0,0,1,1.607.289,3.329,3.329,0,0,1,1.194.818,3.617,3.617,0,0,1,.75,1.261,4.814,4.814,0,0,1,.26,1.618v6.179H89.253v-5.813a3.206,3.206,0,0,0-.712-2.195,2.574,2.574,0,0,0-2.041-.809,3.128,3.128,0,0,0-1.183.222,2.755,2.755,0,0,0-.953.636,2.863,2.863,0,0,0-.626.991,3.527,3.527,0,0,0-.222,1.27v5.7ZM77.2,339.008h1.483v9.952H77.2Zm-.1-3.811H78.8v1.637H77.107ZM72.132,342.4a3.645,3.645,0,0,0-.809-1.207,3.792,3.792,0,0,0-1.155-.775,3.34,3.34,0,0,0-1.339-.278,3.578,3.578,0,0,0-1.367.259,3.205,3.205,0,0,0-1.107.747,3.569,3.569,0,0,0-.75,1.207,4.449,4.449,0,0,0-.279,1.618,4.311,4.311,0,0,0,.279,1.589,3.724,3.724,0,0,0,.76,1.216,3.294,3.294,0,0,0,1.117.775,3.419,3.419,0,0,0,1.348.268,3.352,3.352,0,0,0,1.339-.278,3.791,3.791,0,0,0,1.155-.776,3.63,3.63,0,0,0,.809-1.216,4.091,4.091,0,0,0,.3-1.58,4.021,4.021,0,0,0-.3-1.57m.241,6.557v-2a7.837,7.837,0,0,1-.684.847,4.673,4.673,0,0,1-.837.712,3.881,3.881,0,0,1-1.029.481,4.3,4.3,0,0,1-1.261.173,4.6,4.6,0,0,1-1.751-.346,4.679,4.679,0,0,1-1.521-1.01,4.936,4.936,0,0,1-1.078-1.627,6.159,6.159,0,0,1,0-4.39,4.927,4.927,0,0,1,1.078-1.627,4.812,4.812,0,0,1,1.521-1.02,4.464,4.464,0,0,1,1.751-.355,4.4,4.4,0,0,1,1.27.173,4.276,4.276,0,0,1,1.039.462,4.475,4.475,0,0,1,.837.674,6.076,6.076,0,0,1,.665.809v-6.006h1.483v14.052H72.373Zm-17.52-4.485A1.8,1.8,0,0,0,54.1,346a1.724,1.724,0,0,0,.2.847,1.941,1.941,0,0,0,.547.625,2.51,2.51,0,0,0,.8.395,3.274,3.274,0,0,0,.95.135,4.051,4.051,0,0,0,1.294-.2,3.431,3.431,0,0,0,1.055-.558,2.65,2.65,0,0,0,.711-.847,2.291,2.291,0,0,0,.259-1.088v-.963c-.371-.1-.8-.2-1.275-.289a8.908,8.908,0,0,0-1.64-.135,3.547,3.547,0,0,0-2.149.558m.474-4.09a8.858,8.858,0,0,0-1.415.53L53.47,339.7a9.875,9.875,0,0,1,1.675-.606,7.724,7.724,0,0,1,1.944-.222,4.462,4.462,0,0,1,3.137,1.01,3.872,3.872,0,0,1,1.1,2.993v6.082H59.9v-1.5a4.885,4.885,0,0,1-1.4,1.194,4.267,4.267,0,0,1-2.2.52,4.858,4.858,0,0,1-1.358-.192,3.691,3.691,0,0,1-1.193-.587,2.985,2.985,0,0,1-.847-.972,2.787,2.787,0,0,1-.317-1.367,3.049,3.049,0,0,1,.308-1.4,2.747,2.747,0,0,1,.875-1.01,4.2,4.2,0,0,1,1.348-.615,6.571,6.571,0,0,1,1.722-.211,10.515,10.515,0,0,1,1.675.116,11.885,11.885,0,0,1,1.386.308V342.9a2.559,2.559,0,0,0-.779-2.03,3.21,3.21,0,0,0-2.185-.684,5.837,5.837,0,0,0-1.608.2m-6.016,3.051a5.064,5.064,0,0,0-.278-1.289,3.44,3.44,0,0,0-.612-1.078,2.961,2.961,0,0,0-.956-.741,2.928,2.928,0,0,0-1.31-.279,2.813,2.813,0,0,0-1.205.26,3.143,3.143,0,0,0-.975.712,3.717,3.717,0,0,0-.688,1.069,4.515,4.515,0,0,0-.344,1.348h6.369Zm-5.986,2.531a3.431,3.431,0,0,0,.79,1.058,3.325,3.325,0,0,0,1.078.655,3.573,3.573,0,0,0,1.251.222,3.821,3.821,0,0,0,1.781-.385,5.294,5.294,0,0,0,1.358-1.02l.925.828a6.13,6.13,0,0,1-1.713,1.358,5.062,5.062,0,0,1-2.387.511,4.972,4.972,0,0,1-1.925-.376,4.808,4.808,0,0,1-1.583-1.058,5.055,5.055,0,0,1-1.078-1.646,5.473,5.473,0,0,1-.4-2.117,5.736,5.736,0,0,1,.357-2.03,5.116,5.116,0,0,1,.991-1.656,4.627,4.627,0,0,1,1.511-1.107,4.8,4.8,0,0,1,3.879.009,4.3,4.3,0,0,1,1.462,1.126,4.871,4.871,0,0,1,.9,1.675,6.75,6.75,0,0,1,.308,2.06v.213a1.818,1.818,0,0,1-.019.251H42.943a4.012,4.012,0,0,0,.382,1.431M30.66,335.485h1.521v12.069h7.584v1.405H30.66Z" transform="translate(0 -254.33)" fill="#fff"/>
  </g>
</svg>
